<?xml version="1.0" standalone="no"?>
<!DOCTYPE svg PUBLIC "-//W3C//DTD SVG 20010904//EN"
 "http://www.w3.org/TR/2001/REC-SVG-20010904/DTD/svg10.dtd">
<svg version="1.0" xmlns="http://www.w3.org/2000/svg"
 width="259.000000pt" height="259.000000pt" viewBox="0 0 259.000000 259.000000"
 preserveAspectRatio="xMidYMid meet">
<metadata>
Created by potrace 1.14, written by Peter Selinger 2001-2017
</metadata>
<g transform="translate(0.000000,259.000000) scale(0.100000,-0.100000)"
fill="#000000" stroke="none">
<path d="M1090 2571 c0 -29 27 -33 71 -11 21 11 39 23 39 25 0 3 -25 5 -55 5
-47 0 -55 -3 -55 -19z"/>
<path d="M2200 2205 c212 -212 386 -385 387 -385 2 0 3 12 3 28 0 29 -17 47
-462 500 -226 229 -241 242 -276 242 -36 0 -32 -4 348 -385z"/>
<path d="M2511 2573 c7 -10 27 -31 45 -46 l34 -29 0 46 0 46 -45 0 c-41 0 -44
-2 -34 -17z"/>
<path d="M1415 2570 c3 -5 15 -10 26 -10 11 0 17 5 14 10 -3 6 -15 10 -26 10
-11 0 -17 -4 -14 -10z"/>
<path d="M1215 2428 c-84 -65 -120 -108 -91 -108 20 0 130 104 125 119 -3 9
-14 5 -34 -11z"/>
<path d="M260 2399 c0 -5 5 -7 10 -4 6 3 10 8 10 11 0 2 -4 4 -10 4 -5 0 -10
-5 -10 -11z"/>
<path d="M1635 2370 c44 -51 100 -100 103 -90 5 15 -18 40 -76 80 -36 26 -42
28 -27 10z"/>
<path d="M1065 2299 c-4 -6 -5 -12 -2 -15 7 -7 37 7 37 17 0 13 -27 11 -35 -2z"/>
<path d="M1240 2095 c-52 -19 -75 -36 -115 -79 -49 -54 -60 -78 -90 -181 -19
-64 -18 -101 4 -205 19 -93 47 -160 65 -160 6 0 13 -12 14 -26 1 -14 11 -47
23 -72 13 -30 21 -72 23 -117 2 -81 29 -140 101 -221 l43 -49 18 21 c18 21 83
49 92 40 8 -8 -9 -26 -24 -26 -20 0 -14 -30 8 -44 13 -8 22 -5 43 14 29 28 32
45 8 59 -15 8 -16 13 -5 28 24 34 72 138 72 156 0 13 -12 4 -41 -30 -57 -65
-79 -79 -79 -48 0 8 5 15 10 15 6 0 10 9 10 20 0 10 9 24 20 30 11 6 20 17 20
24 0 8 10 16 22 19 12 4 19 9 16 13 -4 3 -1 13 7 21 8 8 15 25 15 37 0 13 7
41 16 62 13 31 14 42 4 58 -10 16 -10 18 5 13 10 -4 14 -3 10 4 -4 6 0 16 9
22 9 7 18 23 21 36 2 14 9 27 15 31 13 8 29 134 30 236 0 63 -4 87 -18 105
-10 13 -24 37 -32 53 -8 16 -36 51 -62 78 -41 43 -52 49 -81 47 -19 -2 -50 6
-75 19 -50 26 -41 26 -122 -3z m180 -240 c13 -12 20 -28 18 -44 -2 -20 -13
-28 -58 -43 -47 -16 -64 -17 -117 -7 -67 12 -71 22 -24 54 16 10 28 22 26 26
-4 5 51 26 90 33 23 5 46 -2 65 -19z m-262 -71 c31 -9 28 -23 -8 -36 -20 -7
-32 -19 -36 -36 -10 -45 -13 -52 -25 -52 -8 0 -10 15 -5 50 11 83 17 89 74 74z
m401 -61 c1 -7 -3 -13 -9 -13 -5 0 -10 15 -9 33 0 27 2 29 9 12 5 -11 9 -26 9
-32z m-219 -34 c0 -5 -7 -9 -15 -9 -15 0 -20 12 -9 23 8 8 24 -1 24 -14z m31
-91 c13 -18 22 -20 65 -14 61 9 86 22 66 35 -11 7 -11 9 2 14 9 4 16 1 16 -5
0 -7 9 -2 20 10 12 12 23 22 26 22 7 0 -1 -149 -9 -157 -4 -3 -7 -1 -7 6 0 7
-6 11 -12 8 -21 -7 -82 14 -106 36 -14 13 -26 17 -30 12 -4 -6 -40 -10 -81
-11 -54 0 -69 2 -53 9 19 9 27 22 47 82 7 19 7 19 23 -3 10 -12 24 -32 33 -44z
m-241 -8 c6 -11 22 -23 36 -26 36 -9 24 -28 -19 -32 -25 -2 -35 -7 -31 -15 4
-7 -1 -5 -9 3 -9 9 -20 37 -23 64 -7 47 -6 48 14 37 12 -6 26 -20 32 -31z m35
20 c18 -20 11 -25 -19 -14 -17 6 -23 34 -8 34 5 0 17 -9 27 -20z m265 -90 c-6
-11 -20 -20 -32 -20 -20 0 -21 1 -3 20 10 11 24 20 32 20 11 0 11 -4 3 -20z
m11 -87 c9 -56 7 -64 -14 -72 -26 -10 -87 3 -98 21 -6 9 0 15 21 19 16 4 40
14 52 22 26 18 37 21 39 10z"/>
<path d="M1537 1183 c-6 -67 -17 -175 -38 -348 -6 -49 -19 -139 -30 -200 -25
-151 -57 -409 -65 -532 l-7 -103 384 0 c211 0 379 4 372 8 -25 16 -26 80 -3
137 23 58 42 70 88 61 15 -4 81 -8 147 -10 94 -3 125 -1 140 10 17 13 18 16 5
24 -8 5 -31 11 -50 12 -40 2 -251 8 -291 9 -24 0 -28 6 -43 57 -35 126 -56
264 -50 326 3 38 0 91 -10 141 -9 44 -16 101 -16 127 0 84 -6 91 -127 133
-131 47 -326 145 -369 186 l-31 30 -6 -68z"/>
<path d="M1109 1194 c-20 -25 -264 -141 -311 -148 -64 -10 -149 -50 -164 -77
-7 -13 -13 -53 -14 -88 0 -36 -8 -88 -19 -120 -11 -31 -25 -78 -32 -105 -13
-51 -42 -77 -106 -95 -18 -5 -45 -19 -59 -30 -22 -17 -41 -21 -103 -21 -93 0
-114 12 -130 75 -19 76 -61 73 -90 -5 -13 -36 -23 -47 -49 -55 l-32 -9 0 -258
0 -258 605 0 606 0 -4 193 c-3 105 -12 273 -21 372 -9 99 -21 257 -26 350 -13
218 -21 295 -30 295 -4 0 -13 -7 -21 -16z"/>
<path d="M0 1081 c0 -80 2 -92 16 -87 8 3 35 -3 58 -14 52 -23 126 -37 126
-23 0 34 -25 72 -58 89 -20 11 -61 43 -89 73 l-53 55 0 -93z"/>
<path d="M1207 1053 c-12 -11 -6 -46 13 -88 14 -30 19 -34 19 -19 1 13 9 24
22 27 12 3 18 10 14 16 -3 6 -11 9 -16 6 -5 -4 -9 -1 -9 4 0 42 -25 73 -43 54z"/>
<path d="M242 896 c-6 -15 -23 -32 -37 -38 -14 -6 -24 -14 -22 -17 2 -3 11
-24 21 -46 34 -78 47 -105 50 -105 11 0 107 47 140 69 44 29 93 118 75 136 -5
5 -42 10 -82 11 -40 1 -86 4 -103 8 -26 7 -32 4 -42 -18z"/>
</g>
</svg>
